<?xml version="1.0" encoding="UTF-8" standalone="no"?>
<!-- Created with Inkscape (http://www.inkscape.org/) -->

<svg
   width="234mm"
   height="173.39999mm"
   viewBox="0 0 234 173.39999"
   version="1.1"
   id="svg1"
   inkscape:version="1.3 (0e150ed6c4, 2023-07-21)"
   sodipodi:docname="monochrome white type.svg"
   xmlns:inkscape="http://www.inkscape.org/namespaces/inkscape"
   xmlns:sodipodi="http://sodipodi.sourceforge.net/DTD/sodipodi-0.dtd"
   xmlns="http://www.w3.org/2000/svg"
   xmlns:svg="http://www.w3.org/2000/svg">
  <sodipodi:namedview
     id="namedview1"
     pagecolor="#000000"
     bordercolor="#999999"
     borderopacity="1"
     inkscape:showpageshadow="0"
     inkscape:pageopacity="0"
     inkscape:pagecheckerboard="0"
     inkscape:deskcolor="#d1d1d1"
     inkscape:document-units="mm"
     inkscape:zoom="1.7379494"
     inkscape:cx="442.18779"
     inkscape:cy="328.26042"
     inkscape:window-width="2560"
     inkscape:window-height="1377"
     inkscape:window-x="-8"
     inkscape:window-y="-8"
     inkscape:window-maximized="1"
     inkscape:current-layer="layer1" />
  <defs
     id="defs1" />
  <g
     inkscape:label="Layer 1"
     inkscape:groupmode="layer"
     id="layer1"
     transform="translate(6.927063,40.285419)">
    <g
       id="g82-4-9"
       transform="matrix(0.16,0,0,0.16,28.95462,16.335333)"
       inkscape:label="Underscore"
       style="fill:#ffffff">
      <path
         id="rect81-8-0"
         inkscape:label="Green Bar"
         d="M 23.989832 213.49523 L 23.989832 315.49482 L 989.9903 315.49482 L 989.9903 213.49523 L 23.989832 213.49523 z M 59.604583 239.63704 L 69.07106 239.63704 L 69.07106 256.92927 L 86.482788 256.92927 L 86.482788 239.63704 L 95.949264 239.63704 L 95.949264 284.35654 L 86.482788 284.35654 L 86.482788 264.69688 L 69.07106 264.69688 L 69.07106 284.35654 L 59.604583 284.35654 L 59.604583 239.63704 z M 201.67601 239.63704 L 211.02299 239.63704 L 211.02299 262.81715 L 221.09343 252.68211 L 232.6851 252.68211 L 219.57867 265.97265 L 233.23094 284.35654 L 221.58113 284.35654 L 213.26768 272.34177 L 211.02299 274.58646 L 211.02299 284.35654 L 201.67601 284.35654 L 201.67601 239.63704 z M 570.98164 239.63704 L 599.25834 239.63704 L 605.99242 246.37113 L 605.99242 261.78362 L 600.35 267.36791 L 607.57178 284.35654 L 597.55947 284.35654 L 591.12576 268.52094 L 580.44811 268.52094 L 580.44811 284.35654 L 570.98164 284.35654 L 570.98164 239.63704 z M 828.24953 239.63704 L 837.59327 239.63704 L 837.59327 284.35654 L 828.24953 284.35654 L 828.24953 280.10938 L 823.63741 284.35654 L 812.2912 284.35654 L 805.55711 277.62245 L 805.55711 259.41943 L 812.2912 252.62075 L 823.63741 252.62075 L 828.24953 256.92927 L 828.24953 239.63704 z M 670.95616 244.24917 L 677.26714 244.24917 L 677.26714 252.68211 L 682.5446 252.68211 L 682.5446 258.9931 L 677.26714 258.9931 L 677.26714 275.61999 L 679.33097 277.74195 L 683.94309 277.74195 L 683.94309 284.35654 L 674.23438 284.35654 L 667.9234 278.41052 L 667.9234 258.9931 L 665.55597 258.9931 L 665.55597 252.68211 L 668.28836 252.68211 L 670.95616 244.24917 z M 700.98016 244.24917 L 707.29115 244.24917 L 707.29115 252.68211 L 712.57183 252.68211 L 712.57183 258.9931 L 707.29115 258.9931 L 707.29115 275.61999 L 709.35498 277.74195 L 713.9671 277.74195 L 713.9671 284.35654 L 704.25839 284.35654 L 697.9474 278.41052 L 697.9474 258.9931 L 695.57998 258.9931 L 695.57998 252.68211 L 698.31237 252.68211 L 700.98016 244.24917 z M 580.44811 247.28193 L 580.44811 260.87283 L 594.28125 260.87283 L 596.71004 258.50863 L 596.64868 249.64935 L 594.28125 247.28193 L 580.44811 247.28193 z M 289.81986 252.62075 L 299.1636 252.62075 L 299.1636 257.90143 L 304.68652 252.68211 L 311.42061 252.68211 L 311.42061 261.42189 L 303.29126 261.42189 L 299.1636 265.36545 L 299.1636 284.35654 L 289.81986 284.35654 L 289.81986 252.62075 z M 380.69287 252.62075 L 392.10044 252.62075 L 398.83452 259.41943 L 398.83452 277.62245 L 392.10044 284.35654 L 380.75423 284.35654 L 376.20348 280.17075 L 376.20348 295.70274 L 366.8565 295.70274 L 366.8565 252.68211 L 376.20348 252.68211 L 376.20348 256.87113 L 380.69287 252.62075 z M 772.55848 252.62075 L 781.90223 252.62075 L 781.90223 257.90143 L 787.42515 252.68211 L 794.15923 252.68211 L 794.15923 261.42189 L 786.02988 261.42189 L 781.90223 265.36545 L 781.90223 284.35654 L 772.55848 284.35654 L 772.55848 252.62075 z M 899.22065 252.62075 L 908.56439 252.62075 L 908.56439 257.59783 L 914.08731 252.62075 L 925.19128 252.62075 L 930.53011 258.02093 L 936.53749 252.62075 L 947.64146 252.62075 L 954.37555 259.41943 L 954.37555 284.35654 L 945.0318 284.35654 L 945.0318 261.05693 L 942.72574 258.6895 L 937.93275 258.6895 L 931.92537 264.15105 L 931.92537 284.35654 L 922.58162 284.35654 L 922.58162 261.05693 L 920.27556 258.6895 L 915.48257 258.6895 L 908.56439 265.06185 L 908.56439 284.35654 L 899.22065 284.35654 L 899.22065 252.62075 z M 114.5657 252.68211 L 135.13615 252.68211 L 141.87023 259.41943 L 141.87023 284.35654 L 132.52649 284.35654 L 132.52649 279.86715 L 128.09846 284.35654 L 117.29809 284.35654 L 110.56078 277.62245 L 110.56078 270.827 L 117.29809 264.08969 L 132.52649 264.08969 L 132.52649 261.66412 L 130.10093 259.23533 L 114.5657 259.23533 L 114.5657 252.68211 z M 163.88762 252.68211 L 180.63402 252.68211 L 186.88364 258.57 L 186.88364 264.63552 L 177.53989 264.63552 L 177.53989 261.05693 L 175.17246 258.62813 L 168.86148 258.6895 L 166.43592 261.05693 L 166.49405 274.95143 L 168.86148 277.38022 L 186.39917 277.31885 L 186.39917 284.35654 L 163.88762 284.35654 L 157.15031 277.62245 L 157.15031 259.41943 L 163.88762 252.68211 z M 251.05931 252.68211 L 267.1985 252.68211 L 273.99395 259.41943 L 273.99395 271.31147 L 253.66574 271.31147 L 253.66574 274.95143 L 256.09453 277.38022 L 273.44812 277.31885 L 273.44812 284.35654 L 251.05931 284.35654 L 244.32199 277.62245 L 244.32199 259.41943 L 251.05931 252.68211 z M 328.39955 252.68211 L 348.72776 252.68211 L 348.72776 259.53893 L 333.19254 259.53893 L 331.3128 261.54139 L 331.3128 262.69442 L 333.49613 264.93912 L 345.63041 264.93912 L 351.94139 270.88514 L 351.94139 278.34915 L 345.69177 284.35654 L 323.78742 284.35654 L 323.78742 277.43835 L 340.65655 277.43835 L 342.72038 275.37776 L 342.72038 273.73703 L 340.47568 271.43097 L 328.46091 271.43097 L 322.14993 265.42358 L 322.14993 258.62813 L 328.39955 252.68211 z M 416.35929 252.68211 L 436.92974 252.68211 L 443.66383 259.41943 L 443.66383 284.35654 L 434.32008 284.35654 L 434.32008 279.86715 L 429.89206 284.35654 L 419.09168 284.35654 L 412.35437 277.62245 L 412.35437 270.827 L 419.09168 264.08969 L 434.32008 264.08969 L 434.32008 261.66412 L 431.89452 259.23533 L 416.35929 259.23533 L 416.35929 252.68211 z M 465.67799 252.68211 L 482.42761 252.68211 L 488.67723 258.57 L 488.67723 264.63552 L 479.33349 264.63552 L 479.33349 261.05693 L 476.96606 258.62813 L 470.65507 258.6895 L 468.22628 261.05693 L 468.28765 274.95143 L 470.65507 277.38022 L 488.18953 277.31885 L 488.18953 284.35654 L 465.67799 284.35654 L 458.9439 277.62245 L 458.9439 259.41943 L 465.67799 252.68211 z M 509.47699 252.68211 L 525.61619 252.68211 L 532.41487 259.41943 L 532.41487 271.31147 L 512.08665 271.31147 L 512.08665 274.95143 L 514.51222 277.38022 L 531.86904 277.31885 L 531.86904 284.35654 L 509.47699 284.35654 L 502.74291 277.62245 L 502.74291 259.41943 L 509.47699 252.68211 z M 627.52211 252.68211 L 645.30204 252.68211 L 652.09749 259.41943 L 652.09749 277.62245 L 645.30204 284.35654 L 627.52211 284.35654 L 620.78803 277.62245 L 620.78803 259.41943 L 627.52211 252.68211 z M 733.79793 252.68211 L 749.93712 252.68211 L 756.73257 259.41943 L 756.73257 271.31147 L 736.40436 271.31147 L 736.40436 274.95143 L 738.83315 277.38022 L 756.18674 277.31885 L 756.18674 284.35654 L 733.79793 284.35654 L 727.06061 277.62245 L 727.06061 259.41943 L 733.79793 252.68211 z M 855.90611 252.68211 L 876.47656 252.68211 L 883.21064 259.41943 L 883.21064 284.35654 L 873.8669 284.35654 L 873.8669 279.86715 L 869.43887 284.35654 L 858.6385 284.35654 L 851.90118 277.62245 L 851.90118 270.827 L 858.6385 264.08969 L 873.8669 264.08969 L 873.8669 261.66412 L 871.44133 259.23533 L 855.90611 259.23533 L 855.90611 252.68211 z M 262.70911 258.62813 L 256.09453 258.6895 L 253.6076 261.05693 L 253.6076 265.18135 L 265.13467 265.18135 L 265.13467 261.05693 L 262.70911 258.62813 z M 521.1268 258.62813 L 514.51222 258.6895 L 512.02529 261.05693 L 512.02529 265.18135 L 523.55559 265.18135 L 523.55559 261.05693 L 521.1268 258.62813 z M 640.32495 258.62813 L 632.4992 258.6895 L 630.07041 261.05693 L 630.13177 275.92359 L 632.4992 278.34915 L 640.32495 278.34915 L 642.75374 275.92359 L 642.69238 261.05693 L 640.32495 258.62813 z M 745.44773 258.62813 L 738.83315 258.6895 L 736.34622 261.05693 L 736.34622 265.18135 L 747.8733 265.18135 L 747.8733 261.05693 L 745.44773 258.62813 z M 387.61105 258.6895 L 382.02676 258.75086 L 376.20348 264.21242 L 376.20348 272.82946 L 382.02676 278.28779 L 387.61105 278.28779 L 389.67165 276.16582 L 389.67165 260.87283 L 387.61105 258.6895 z M 816.78059 258.6895 L 814.71676 260.87283 L 814.71676 276.16582 L 816.78059 278.28779 L 822.30351 278.28779 L 828.24953 272.70673 L 828.24953 264.27378 L 822.36487 258.75086 L 816.78059 258.6895 z M 122.27195 269.73211 L 119.84638 272.09953 L 119.90775 276.04309 L 122.27195 278.41052 L 126.76134 278.41052 L 132.52649 272.64537 L 132.52649 269.73211 L 122.27195 269.73211 z M 424.06554 269.73211 L 421.63998 272.09953 L 421.69811 276.04309 L 424.06554 278.41052 L 428.55493 278.41052 L 434.32008 272.64537 L 434.32008 269.73211 L 424.06554 269.73211 z M 863.61236 269.73211 L 861.18679 272.09953 L 861.24816 276.04309 L 863.61236 278.41052 L 868.10175 278.41052 L 873.8669 272.64537 L 873.8669 269.73211 L 863.61236 269.73211 z "
         style="fill:#ffffff" />
    </g>
    <path
       d="M 32.792291,42.334575 V 26.014594 h 10.916894 l 2.457962,2.457962 v 6.288839 l -2.457962,2.457962 h -6.776003 v 5.115218 z m 4.140891,-8.259638 h 4.450904 l 0.775033,-0.775033 v -3.365857 l -0.775033,-0.775033 h -4.450904 z m 16.914131,-4.583766 v -3.100132 h 4.140891 v 3.100132 z m 0,12.843404 V 30.753367 h 4.140891 v 11.581208 z m 11.488906,0 3.919453,-8.547507 -3.897309,-7.772474 h 4.760917 l 2.590825,6.111689 h 0.797177 l 2.590824,-6.111689 h 4.760918 l -3.897309,7.772474 3.919452,8.547507 h -4.783061 l -2.590824,-6.488134 h -0.797177 l -2.590825,6.488134 z m 23.003687,0 V 26.014594 h 12.400524 v 3.365858 h -8.259633 v 3.011557 h 7.440317 v 3.122275 h -7.440317 v 3.454433 h 8.259633 v 3.365858 z m 20.966464,0 V 26.014594 h 4.14089 v 12.954123 h 7.48461 v 3.365858 z m 19.41641,0 V 26.014594 h 10.89475 l 2.45796,2.457962 v 3.919453 l -1.10719,1.129333 1.74936,1.638642 v 4.716629 l -2.45796,2.457962 z m 4.14089,-9.986854 h 4.47305 l 0.77503,-0.775033 v -1.638641 l -0.77503,-0.775033 h -4.47305 z m 0,6.842434 h 4.93807 l 0.77503,-0.775033 v -2.413674 l -0.77503,-0.775033 h -4.93807 z m 16.51557,3.14442 4.78306,-16.319981 h 6.73171 l 4.78306,16.319981 h -4.38447 l -0.81932,-3.255139 h -5.89025 l -0.81932,3.255139 z m 6.02311,-6.443846 h 4.25161 l -1.72722,-6.753859 h -0.79717 z m 17.73347,6.443846 V 26.014594 h 11.11619 l 2.48011,2.457962 v 5.845963 l -1.86008,1.860079 2.4801,6.155977 h -4.16303 l -2.14795,-5.558094 h -3.76445 v 5.558094 z m 4.14089,-8.702514 h 4.6502 l 0.77503,-0.775033 v -2.922981 l -0.77503,-0.775033 h -4.6502 z"
       id="text1-2-3-5-6-5-5-0-5-7-3-9"
       aria-label="PiXELBAR"
       inkscape:label="PiXELBAR"
       style="fill:#ffffff" />
  </g>
</svg>
