<?xml version="1.0" encoding="UTF-8" standalone="no"?>
<!-- Created with Inkscape (http://www.inkscape.org/) -->

<svg
   width="234mm"
   height="173.39999mm"
   viewBox="0 0 234 173.39999"
   version="1.1"
   id="svg1"
   inkscape:version="1.3 (0e150ed6c4, 2023-07-21)"
   sodipodi:docname="type on black.svg"
   xmlns:inkscape="http://www.inkscape.org/namespaces/inkscape"
   xmlns:sodipodi="http://sodipodi.sourceforge.net/DTD/sodipodi-0.dtd"
   xmlns="http://www.w3.org/2000/svg"
   xmlns:svg="http://www.w3.org/2000/svg">
  <sodipodi:namedview
     id="namedview1"
     pagecolor="#000000"
     bordercolor="#999999"
     borderopacity="1"
     inkscape:showpageshadow="0"
     inkscape:pageopacity="0"
     inkscape:pagecheckerboard="0"
     inkscape:deskcolor="#d1d1d1"
     inkscape:document-units="mm"
     inkscape:zoom="1.7379494"
     inkscape:cx="442.18779"
     inkscape:cy="327.68503"
     inkscape:window-width="2560"
     inkscape:window-height="1377"
     inkscape:window-x="-8"
     inkscape:window-y="-8"
     inkscape:window-maximized="1"
     inkscape:current-layer="layer1" />
  <defs
     id="defs1" />
  <g
     inkscape:label="Layer 1"
     inkscape:groupmode="layer"
     id="layer1"
     transform="translate(6.927063,40.285419)">
    <g
       id="g82-4-9"
       transform="matrix(0.16,0,0,0.16,28.95462,16.335333)"
       inkscape:label="Underscore">
      <rect
         style="vector-effect:non-scaling-stroke;fill:#008000;stroke-width:0.274314;-inkscape-stroke:hairline"
         id="rect81-8-0"
         width="966"
         height="102"
         x="23.989464"
         y="213.49518"
         inkscape:label="Green Bar" />
      <path
         style="font-weight:600;font-size:60.6778px;line-height:37.9261px;font-family:Tomorrow;-inkscape-font-specification:'Tomorrow Semi-Bold';text-align:center;letter-spacing:7.9375px;word-spacing:0px;text-anchor:middle;fill:#ffffff;stroke-width:0.249481"
         d="m 59.603753,284.35663 v -44.71954 h 9.465737 v 17.29317 h 17.414529 v -17.29317 h 9.465736 v 44.71954 H 86.484019 V 264.69702 H 69.06949 v 19.65961 z m 57.693327,0 -6.73523,-6.73524 v -6.79591 l 6.73523,-6.73524 h 15.23013 v -2.42711 l -2.42711,-2.42711 h -15.53352 v -6.5532 h 20.56977 l 6.73524,6.73523 v 24.93858 h -9.34438 v -4.49016 l -4.42948,4.49016 z m 4.97558,-5.94643 h 4.49016 l 5.76439,-5.76439 v -2.91253 h -10.25455 l -2.42711,2.36643 0.0607,3.94406 z m 41.61369,5.94643 -6.73523,-6.73524 v -18.20334 l 6.73523,-6.73523 h 16.74708 l 6.24981,5.88574 v 6.06778 h -9.34438 v -3.57999 l -2.36643,-2.42711 -6.3105,0.0607 -2.42711,2.36643 0.0607,13.89522 2.36643,2.42711 17.53589,-0.0607 v 7.03863 z m 37.79097,0 v -44.71954 h 9.34438 v 23.17892 l 10.07251,-10.13319 h 11.58946 l -13.1064,13.28844 13.6525,18.38537 h -11.65013 l -8.31286,-12.01421 -2.24508,2.24508 v 9.76913 z m 49.38041,0 -6.73524,-6.73524 v -18.20334 l 6.73524,-6.73523 h 16.14029 l 6.79591,6.73523 v 11.89285 h -20.32706 v 3.64067 l 2.42711,2.42711 17.35385,-0.0607 v 7.03863 z m 2.54846,-19.17419 h 11.52879 v -4.12609 l -2.42712,-2.42711 -6.61388,0.0607 -2.48779,2.36643 z m 36.21337,19.17419 v -31.73449 h 9.34438 v 5.27897 l 5.52168,-5.21829 h 6.73524 v 8.7376 h -8.13083 l -4.12609,3.94406 v 18.99215 z m 33.96836,0 v -6.91727 h 16.86843 l 2.06304,-2.06305 v -1.6383 l -2.24508,-2.30575 h -12.0142 l -6.31049,-6.0071 v -6.79592 l 6.24981,-5.94642 h 20.32706 v 6.85659 h -15.53351 l -1.88101,2.00237 v 1.15287 l 2.1844,2.24508 h 12.13556 l 6.31049,5.94643 v 7.46337 l -6.24982,6.0071 z m 43.06994,11.34675 v -43.02056 h 9.34438 v 4.18677 l 4.49016,-4.24745 h 11.40742 l 6.73524,6.79591 v 18.20334 l -6.73524,6.73524 h -11.34674 l -4.55084,-4.18677 v 15.53352 z m 15.16945,-17.41453 h 5.58236 l 2.06304,-2.12372 v -15.29081 l -2.06304,-2.1844 -5.58236,0.0607 -5.82507,5.461 v 8.61625 z m 37.06282,6.06778 -6.73524,-6.73524 v -6.79591 l 6.73524,-6.73524 h 15.23013 v -2.42711 l -2.42711,-2.42711 h -15.53352 v -6.5532 h 20.56977 l 6.73524,6.73523 v 24.93858 h -9.34438 v -4.49016 l -4.42948,4.49016 z m 4.97558,-5.94643 h 4.49016 l 5.76439,-5.76439 v -2.91253 h -10.25455 l -2.42711,2.36643 0.0607,3.94406 z m 41.61367,5.94643 -6.73523,-6.73524 v -18.20334 l 6.73523,-6.73523 h 16.74708 l 6.24981,5.88574 v 6.06778 h -9.34438 v -3.57999 l -2.36644,-2.42711 -6.31049,0.0607 -2.42711,2.36643 0.0607,13.89522 2.36643,2.42711 17.53589,-0.0607 v 7.03863 z m 43.79807,0 -6.73524,-6.73524 v -18.20334 l 6.73524,-6.73523 h 16.14029 l 6.79592,6.73523 v 11.89285 h -20.32707 v 3.64067 l 2.42712,2.42711 17.35385,-0.0607 v 7.03863 z m 2.54847,-19.17419 h 11.52878 v -4.12609 l -2.42711,-2.42711 -6.61388,0.0607 -2.48779,2.36643 z m 58.95628,19.17419 v -44.71954 h 28.27586 l 6.73523,6.73524 v 15.41216 l -5.64303,5.58235 7.22065,16.98979 h -10.01183 l -6.43185,-15.83691 h -10.67929 v 15.83691 z m 9.46574,-23.48231 h 13.83454 l 2.42711,-2.36643 -0.0607,-8.85896 -2.36643,-2.36644 h -13.83454 z m 47.07474,23.48231 -6.73524,-6.73524 v -18.20334 l 6.73524,-6.73523 h 17.77859 l 6.79592,6.73523 v 18.20334 l -6.79592,6.73524 z m 4.97558,-6.0071 h 7.82743 l 2.42711,-2.42712 -0.0607,-14.86606 -2.36644,-2.42711 -7.82743,0.0607 -2.42712,2.36643 0.0607,14.86606 z m 41.73506,6.0071 -6.31049,-5.94643 v -19.41689 h -2.36644 v -6.31049 h 2.7305 l 2.66983,-8.43422 h 6.31049 v 8.43422 h 5.27897 v 6.31049 h -5.27897 v 16.62572 l 2.06304,2.12372 h 4.61152 v 6.61388 z m 30.02423,0 -6.31049,-5.94643 v -19.41689 h -2.36644 v -6.31049 h 2.73051 l 2.66982,-8.43422 h 6.31049 v 8.43422 h 5.27897 v 6.31049 h -5.27897 v 16.62572 l 2.06304,2.12372 h 4.61152 v 6.61388 z m 29.53881,0 -6.73524,-6.73524 v -18.20334 l 6.73524,-6.73523 h 16.14029 l 6.79592,6.73523 V 271.3109 H 736.4055 v 3.64067 l 2.42712,2.42711 17.35385,-0.0607 v 7.03863 z m 2.54847,-19.17419 h 11.52878 v -4.12609 l -2.42711,-2.42711 -6.61388,0.0607 -2.48779,2.36643 z m 36.21335,19.17419 v -31.73449 h 9.34438 v 5.27897 l 5.52168,-5.21829 h 6.73523 v 8.7376 h -8.13082 l -4.12609,3.94406 v 18.99215 z m 39.73275,0 -6.73524,-6.73524 v -18.20334 l 6.73524,-6.79591 h 11.34674 l 4.61152,4.30812 v -17.29317 h 9.34438 v 44.71954 h -9.34438 v -4.24745 l -4.61152,4.24745 z m 10.01183,-6.06778 5.94643,-5.58236 v -8.43421 l -5.88575,-5.52168 -5.58236,-0.0607 -2.06304,2.1844 v 15.29081 l 2.06304,2.12372 z m 36.3347,6.06778 -6.73523,-6.73524 v -6.79591 l 6.73523,-6.73524 h 15.23013 v -2.42711 l -2.42711,-2.42711 h -15.53352 v -6.5532 h 20.56978 l 6.73523,6.73523 v 24.93858 h -9.34438 v -4.49016 l -4.42948,4.49016 z m 4.97558,-5.94643 h 4.49016 l 5.76439,-5.76439 v -2.91253 h -10.25455 l -2.42711,2.36643 0.0607,3.94406 z m 35.60664,5.94643 v -31.73449 h 9.34438 v 4.97558 l 5.52168,-4.97558 h 11.10403 l 5.33965,5.40032 6.0071,-5.40032 h 11.10404 l 6.73524,6.79591 v 24.93858 h -9.34439 v -23.30028 l -2.30575,-2.36643 h -4.79355 l -6.0071,5.461 v 20.20571 h -9.34438 v -23.30028 l -2.30576,-2.36643 h -4.79354 l -6.91727,6.37117 v 19.29554 z"
         id="text5-5-3-1-3-1"
         aria-label="Hackerspace Rotterdam"
         inkscape:label="Hackerspace Rotterdam" />
    </g>
    <path
       style="font-weight:bold;font-size:22.1438px;line-height:0.75;font-family:Tomorrow;-inkscape-font-specification:'Tomorrow Bold';text-align:center;letter-spacing:5.90868px;word-spacing:0px;text-anchor:middle;fill:#ffffff;stroke-width:0.398586"
       d="M 32.792291,42.334575 V 26.014594 h 10.916894 l 2.457962,2.457962 v 6.288839 l -2.457962,2.457962 h -6.776003 v 5.115218 z m 4.140891,-8.259638 h 4.450904 l 0.775033,-0.775033 v -3.365857 l -0.775033,-0.775033 h -4.450904 z m 16.914131,-4.583766 v -3.100132 h 4.140891 v 3.100132 z m 0,12.843404 V 30.753367 h 4.140891 v 11.581208 z m 11.488906,0 3.919453,-8.547507 -3.897309,-7.772474 h 4.760917 l 2.590825,6.111689 h 0.797177 l 2.590824,-6.111689 h 4.760918 l -3.897309,7.772474 3.919452,8.547507 h -4.783061 l -2.590824,-6.488134 h -0.797177 l -2.590825,6.488134 z m 23.003687,0 V 26.014594 h 12.400524 v 3.365858 h -8.259633 v 3.011557 h 7.440317 v 3.122275 h -7.440317 v 3.454433 h 8.259633 v 3.365858 z m 20.966464,0 V 26.014594 h 4.14089 v 12.954123 h 7.48461 v 3.365858 z m 19.41641,0 V 26.014594 h 10.89475 l 2.45796,2.457962 v 3.919453 l -1.10719,1.129333 1.74936,1.638642 v 4.716629 l -2.45796,2.457962 z m 4.14089,-9.986854 h 4.47305 l 0.77503,-0.775033 v -1.638641 l -0.77503,-0.775033 h -4.47305 z m 0,6.842434 h 4.93807 l 0.77503,-0.775033 v -2.413674 l -0.77503,-0.775033 h -4.93807 z m 16.51557,3.14442 4.78306,-16.319981 h 6.73171 l 4.78306,16.319981 h -4.38447 l -0.81932,-3.255139 h -5.89025 l -0.81932,3.255139 z m 6.02311,-6.443846 h 4.25161 l -1.72722,-6.753859 h -0.79717 z m 17.73347,6.443846 V 26.014594 h 11.11619 l 2.48011,2.457962 v 5.845963 l -1.86008,1.860079 2.4801,6.155977 h -4.16303 l -2.14795,-5.558094 h -3.76445 v 5.558094 z m 4.14089,-8.702514 h 4.6502 l 0.77503,-0.775033 v -2.922981 l -0.77503,-0.775033 h -4.6502 z"
       id="text1-2-3-5-6-5-5-0-5-7-3-9"
       aria-label="PiXELBAR"
       inkscape:label="PiXELBAR" />
  </g>
</svg>
