<?xml version="1.0" encoding="UTF-8" standalone="no"?>
<!-- Created with Inkscape (http://www.inkscape.org/) -->

<svg
   width="200mm"
   height="70mm"
   viewBox="0 0 200 69.999997"
   version="1.1"
   id="svg1"
   inkscape:version="1.3 (0e150ed6c4, 2023-07-21)"
   sodipodi:docname="Pixelbar_icons_black.svg"
   xmlns:inkscape="http://www.inkscape.org/namespaces/inkscape"
   xmlns:sodipodi="http://sodipodi.sourceforge.net/DTD/sodipodi-0.dtd"
   xmlns="http://www.w3.org/2000/svg"
   xmlns:svg="http://www.w3.org/2000/svg">
  <sodipodi:namedview
     id="namedview1"
     pagecolor="#ffffff"
     bordercolor="#999999"
     borderopacity="1"
     inkscape:showpageshadow="0"
     inkscape:pageopacity="0"
     inkscape:pagecheckerboard="0"
     inkscape:deskcolor="#d1d1d1"
     inkscape:document-units="mm"
     inkscape:zoom="2.3428854"
     inkscape:cx="377.95276"
     inkscape:cy="94.541543"
     inkscape:window-width="2560"
     inkscape:window-height="1377"
     inkscape:window-x="-8"
     inkscape:window-y="-8"
     inkscape:window-maximized="1"
     inkscape:current-layer="layer1" />
  <defs
     id="defs1" />
  <g
     inkscape:label="Layer 1"
     inkscape:groupmode="layer"
     id="layer1"
     transform="translate(-32.792291,-1.5466529)">
    <g
       id="g13"
       inkscape:label="Icons"
       transform="translate(22.719118,19.434311)">
      <path
         id="path61-75"
         style="color:#000000;fill:#000000;fill-rule:evenodd;stroke-width:0.191358;stroke-dashoffset:20;-inkscape-stroke:none"
         d="m 179.95249,3.1853126 c -5.97522,0.058344 -11.95582,0.025838 -17.93276,0.025838 C 159.28,3.1040764 156.90062,5.660217 157.11305,8.3746597 V 20.589935 c -0.71484,1.652993 -1.42921,3.305877 -2.14405,4.95887 -0.43447,0.770832 -0.43156,2.224498 0.0687,3.175517 0.64827,1.541319 2.32069,2.480616 3.97133,2.289266 8.26454,-0.0044 16.52947,0.0089 24.79384,-0.0067 2.63938,-0.05426 4.32862,-3.496839 3.1905,-5.537129 -0.69212,-1.657696 -1.47515,-3.296139 -2.11047,-4.965589 -0.016,-4.291573 0.0321,-8.585415 -0.0248,-12.8756997 -0.19018,-2.4741885 -2.46858,-4.4393373 -4.90564,-4.4431397 z m -17.93328,3.1801677 h 17.9586 c 0.99895,0 1.7508,0.8638175 1.7508,1.751831 0,4.1025637 6e-5,8.5607547 0,12.6550417 H 160.2679 V 8.1178281 c 0,-0.9237191 0.73535,-1.7523478 1.75131,-1.7523478 z m -2.13268,15.6481407 h 22.22345 c 0.69631,1.360428 1.39259,3.56736 2.08876,4.927864 0,0.33756 -0.27367,0.917257 -0.61082,0.917257 H 158.4091 c -0.33756,0 -0.61082,-0.579697 -0.61082,-0.917257 0.69768,-1.359677 1.3904,-3.568274 2.08825,-4.927864 z m 8.85785,2.095996 -0.5705,2.086177 h 5.64926 l -0.5705,-2.086177 z"
         sodipodi:nodetypes="sccccccccccssssccsscccssccccccc"
         inkscape:label="Laptop" />
      <path
         id="path59-2"
         style="color:#000000;fill:#000000;fill-rule:evenodd;stroke-width:0.191346;stroke-dashoffset:20;-inkscape-stroke:none"
         d="m 133.19462,2.4416887 c -0.50525,0.010855 -1.0129,0.058922 -1.51877,0.1457276 -2.75645,0.4731685 -5.17934,2.0049194 -6.7815,4.2891439 -1.01824,1.4632374 -1.63835,3.1454678 -1.85389,4.9097778 -0.0581,0.599417 -0.24785,1.967099 -0.56068,3.33623 -0.31175,1.364382 -0.81788,2.802867 -1.20872,3.361036 -0.0695,0.135574 3.7e-4,-0.05386 -0.4375,0.748269 -0.14097,0.258273 -0.26527,0.464583 -0.36535,0.722437 0.13179,-0.230865 0.12798,-0.223828 5.2e-4,0.0041 -0.0897,0.232981 -0.13129,0.439049 -0.17777,0.646472 -0.33022,0.272991 -0.53349,0.633413 -0.70693,1.017509 -0.42718,0.411843 -0.52582,0.564648 -0.75396,1.07797 -0.15072,0.144935 -0.30543,0.293159 -0.44752,0.496094 -0.98493,1.40662 -0.98163,3.08698 0.0305,4.37441 0.30179,1.430044 1.13048,2.718455 2.35076,3.572909 1.27287,0.891282 2.64825,1.250705 4.15324,0.987536 0.0309,0.03086 2.60747,0.706276 4.12998,-1.468127 0.14057,-0.200756 0.22624,-0.395266 0.31057,-0.585494 0.40787,-0.392089 0.52854,-0.565296 0.75758,-1.082105 0.32811,-0.275283 0.54094,-0.62483 0.71313,-1.009757 0.17879,-0.114354 0.35835,-0.224205 0.54674,-0.388607 0.39832,-0.345818 1.09549,-1.239722 1.11104,-1.261938 0.25396,-0.362688 0.95286,-1.02146 1.93012,-1.720825 0.97725,-0.699367 2.23975,-1.468053 3.67368,-2.207101 2.25232,-1.161945 3.27961,-2.382248 4.04264,-3.413745 l 0.004,-0.0041 c 0.005,-0.0071 0.0104,-0.01395 0.0155,-0.02119 1.60286,-2.289114 2.21413,-5.091687 1.71514,-7.846033 -0.48201,-2.6604325 -2.21089,-4.9685725 -4.1584,-6.5799601 -1.94751,-1.6113876 -4.2586,-2.0450508 -6.51413,-2.100647 z m 0.46974,3.1501954 c 1.44806,0.040094 2.85638,0.5052553 4.05143,1.3420369 1.61547,1.1311673 2.69704,2.8178574 3.04684,4.750614 0.34986,1.930717 -0.0752,3.875013 -1.19528,5.474602 -0.71104,1.013262 -1.66612,1.798204 -2.7652,2.361096 -0.0327,0.03769 -4.84286,2.068543 -6.60942,4.591451 l -0.59996,0.692981 c -0.23837,0.20824 -0.46685,0.329259 -0.6842,0.364319 l -5.31543,-3.721737 c -0.0414,-0.216232 -0.006,-0.472685 0.108,-0.767912 l 0.44597,-0.800984 c 1.76656,-2.522908 2.03053,-7.737357 2.03553,-7.794357 0.11896,-1.239539 0.63687,-2.3562202 1.2914,-3.3925575 1.71988,-2.4562823 4.33923,-3.1508055 6.19032,-3.0995524 z M 122.93581,22.576377 c 0.0596,-0.0069 0.12037,-0.0062 0.18087,0.0026 l 4.89169,3.425631 c 0.1153,0.21505 0.114,0.479982 -0.0315,0.687813 -0.0592,0.08452 -0.12871,0.165963 -0.22221,0.194303 -0.22459,0.06816 -0.41771,0.343058 -0.42271,0.552421 -0.003,0.117011 -0.0411,0.232991 -0.11214,0.334347 -0.0755,0.107887 -0.18656,0.168707 -0.29456,0.228926 -0.13539,0.07546 -0.34612,0.306552 -0.35812,0.59738 -0.0191,0.46266 -0.62502,0.69455 -1.04128,0.403076 -0.23544,-0.11135 -0.44135,-0.139348 -0.58291,-0.09612 -0.77639,0.237069 -1.65017,0.157198 -2.36988,-0.346749 -0.71922,-0.503598 -1.05555,-1.203168 -1.13585,-2.107882 -0.0152,-0.171257 -0.10256,-0.368015 -0.2899,-0.514697 -0.40201,-0.314713 -0.37441,-0.887033 0.0227,-1.116727 0.19131,-0.08012 0.33283,-0.156184 0.43925,-0.541053 0.033,-0.119184 0.0387,-0.246612 0.1142,-0.3545 0.071,-0.101356 0.16811,-0.174212 0.27544,-0.220142 0.19996,-0.138333 0.33085,-0.163231 0.37465,-0.58601 0.0101,-0.09713 0.0478,-0.190399 0.10697,-0.274919 0.10915,-0.15587 0.27655,-0.246872 0.45527,-0.267684 z"
         sodipodi:nodetypes="scccscscccccccscscccccsccccczsssccccccccccccsccsccscscsssccccccsssc"
         inkscape:label="Lightbulb" />
      <path
         id="path55-3"
         style="color:#000000;fill:#000000;fill-rule:evenodd;stroke-width:0.184731;stroke-dashoffset:75.5906;-inkscape-stroke:none"
         d="m 90.17192,1.5466529 c -1.294598,0 -2.455873,0.8186482 -2.892847,2.037085 L 86.673942,5.2714902 C 86.282402,5.0712889 85.893705,4.8578191 85.495529,4.6726287 84.915821,4.4030079 84.31602,4.1933304 83.658105,4.1718157 82.929382,4.1722207 82.184941,4.473178 81.591565,5.0451474 L 79.566362,7.0682799 C 78.650638,7.983647 78.4058,9.3839758 78.959163,10.554889 l 0.765328,1.619022 -1.23455,0.40411 c -0.566296,0.184626 -1.170527,0.451607 -1.669665,0.949296 -0.51514,0.513654 -0.835538,1.25079 -0.851628,2.079976 -5e-5,0.0052 -5e-5,0.01033 0,0.0155 v 0.0041 2.847889 c 0,1.29452 0.817965,2.456108 2.037085,2.89233 l 1.687753,0.60358 -0.590145,1.160136 c -0.269209,0.530663 -0.506597,1.144997 -0.507463,1.8495 -8.71e-4,0.727265 0.293923,1.476919 0.868681,2.074292 l 0.0098,0.0098 0.0021,0.0041 2.01383,2.013314 c 0.940479,0.939059 2.346323,1.142271 3.484542,0.605648 0.539886,-0.256799 1.080653,-0.511751 1.621089,-0.767393 l 0.534851,1.63866 v 0.0016 c 0.0014,0.0041 0.0064,0.0056 0.0078,0.0098 0.415941,1.252989 1.592758,2.107882 2.914034,2.107882 h 2.842204 c 1.294415,0 2.457394,-0.818785 2.894397,-2.037602 0.20173,-0.56222 0.402474,-1.124794 0.603586,-1.687235 l 1.158069,0.588078 c 0.524192,0.2663 1.136008,0.510868 1.843815,0.515214 0.732614,0.0045 1.484994,-0.29483 2.085654,-0.8785 l 2.0216,-2.023631 c 0.91538,-0.915401 1.15785,-2.314542 0.60564,-3.484542 l -0.76377,-1.621089 1.23041,-0.402043 c 0.56704,-0.18409 1.17188,-0.451228 1.67173,-0.949296 0.51573,-0.513882 0.83755,-1.250597 0.8537,-2.079976 5e-5,-0.0053 5e-5,-0.01068 0,-0.01602 v -0.0036 -2.847889 c 0,-1.294868 -0.81796,-2.456105 -2.03709,-2.89233 l -1.68723,-0.60358 0.77928,-1.535307 c 0.59997,-1.1822009 0.37075,-2.6262384 -0.56689,-3.5641234 L 101.57639,5.1443662 C 100.637,4.2048302 99.230786,3.9993057 98.09185,4.5371681 L 96.47076,5.3045631 96.068201,4.0705299 C 95.883691,3.5044345 95.616438,2.8997931 95.118905,2.4003476 94.605262,1.8847331 93.868385,1.5632837 93.038928,1.5471697 Z m 5.17e-4,3.0737142 h 2.843237 l 1.124479,3.4452678 1.960087,0.8118367 3.304191,-1.5606282 2.010209,2.0102132 -1.640722,3.2318444 0.811322,1.95957 3.44061,1.231966 v 2.843237 l -3.44526,1.12448 -0.812357,1.960603 1.561147,3.303158 -2.009698,2.01073 -3.232361,-1.640727 -1.960087,0.811837 -1.231966,3.4401 H 90.05203 l -1.124996,-3.444751 -1.960603,-0.812353 -3.303158,1.561145 -2.01073,-2.01073 1.640727,-3.230811 -0.811837,-1.960604 -3.4401,-1.231966 v -2.843237 l 3.444751,-1.124996 0.81287,-1.960604 -1.561145,-3.3031575 2.01073,-2.0102132 3.230811,1.6407267 1.960604,-0.8118368 z m 1.36064,8.5105919 c -2.198437,0 -3.980636,1.782718 -3.980636,3.981152 0,2.198986 1.782199,3.981152 3.980636,3.981152 2.198983,0 3.982186,-1.782166 3.982186,-3.981152 0,-2.198434 -1.783203,-3.981152 -3.982186,-3.981152 z m 5.17e-4,1.929598 c 1.132792,0 2.051554,0.91876 2.051554,2.051554 0,1.133345 -0.918762,2.051554 -2.051554,2.051554 -1.133343,0 -2.051038,-0.918209 -2.051038,-2.051554 0,-1.132794 0.917695,-2.051554 2.051038,-2.051554 z"
         sodipodi:nodetypes="cccsccccccscccscccccccccccccsscccscccccscccsccccccccscccccccccccccccccccccccccccccccccccssssssssss"
         inkscape:label="Gear" />
      <path
         id="path57-1"
         style="color:#000000;fill:#000000;fill-rule:evenodd;stroke-width:0.190518;stroke-dashoffset:20;-inkscape-stroke:none"
         d="m 44.967961,3.0742083 c -0.798785,0.4547098 -1.360436,1.2386367 -1.53324,2.1425049 -0.173499,0.9037527 0.05916,1.8373531 0.633036,2.5548828 6.63e-4,0.00131 0.0014,0.00232 0.0021,0.00362 l 0.0036,0.00413 c 0.34683,0.4112139 0.67391,0.8385184 1.008207,1.2598711 0.786056,0.9829979 1.929092,1.2484859 2.83962,1.1363649 l 0.08423,0.0078 c 0.04778,-0.0072 0.392618,0.08456 0.554488,0.09767 -0.683568,0.674626 -1.360608,1.367393 -2.044836,2.035534 -0.363595,0.139801 -0.730213,0.285285 -1.019576,0.548804 -4.3e-4,3.92e-4 -0.0016,-3.91e-4 -0.0021,0 L 33.812052,23.507586 c -1.318514,1.20153 -1.364062,3.292876 -0.103869,4.551144 1.220153,1.213461 2.439317,2.432083 3.658174,3.648356 1.256211,1.25247 3.338373,1.209523 4.539258,-0.103353 3.550403,-3.874888 7.097534,-7.752775 10.648446,-11.627197 0.263249,-0.287861 0.398507,-0.654973 0.538985,-1.015442 0.595918,-0.579063 1.808965,-1.801249 2.568319,-2.559011 0.0504,0.06 0.05813,0.132664 0.115238,0.189652 0.457644,0.457719 0.916598,0.914126 1.37511,1.370976 0.609477,0.607595 1.417619,0.91829 2.220536,0.91829 0.803216,0 1.611628,-0.310576 2.221053,-0.91829 l 2.843754,-2.836002 v -0.0016 c 0.590591,-0.589496 0.923458,-1.38956 0.923458,-2.22467 -0.128053,-0.817216 -0.400051,-1.680844 -0.923458,-2.226738 L 63.102771,9.3420428 C 62.627768,8.8681128 61.969856,8.705164 61.317867,8.6035865 61.216578,8.1033385 61.14974,7.5668952 60.89412,7.2186581 60.469852,6.6406659 59.964932,6.2341422 59.84924,6.1014178 59.276029,5.4715556 55.834099,1.8506152 50.772774,1.6463885 50.747791,1.6265383 48.076045,1.3061361 44.967961,3.0742083 Z m 5.389335,1.6779337 c 3.477827,0.050386 5.593397,1.8982232 7.871354,4.1697714 l 0.333313,1.2040606 c 0.258415,0.633584 0.76174,1.094814 1.379244,1.312065 0.434014,-0.109868 0.651778,0.139746 0.940511,0.130224 l 1.335319,1.331185 -2.844788,2.837036 -1.352372,-1.349271 c -0.08664,-0.6621 -0.229538,-1.250243 -0.70435,-1.746664 -0.455284,-0.454194 -1.0937,-0.639781 -1.690336,-0.641304 l -4.646745,4.633826 c -0.179465,0.153709 -0.585918,0.562648 -0.74259,1.220597 L 39.588444,29.479315 35.931303,25.831992 47.61276,15.189231 c 0.374107,-0.123194 0.732635,-0.309623 1.029912,-0.568957 l 4.342887,-4.312399 C 54.319026,8.6406641 50.75974,7.023838 48.248897,7.023838 c -0.249204,0 -0.489048,0.016256 -0.711584,0.049609 L 47.195215,6.6460833 49.021977,5.815643 46.805058,6.1587745 46.523421,5.8073748 C 47.633159,5.1840869 48.889006,4.7308697 50.357296,4.752142 Z"
         sodipodi:nodetypes="ccccccccccsccccccccccscccccccscccsccccccccccccccccscccccs"
         inkscape:label="Hammer" />
    </g>
  </g>
</svg>
