<?xml version="1.0" encoding="UTF-8" standalone="no"?>
<!-- Created with Inkscape (http://www.inkscape.org/) -->

<svg
   width="105mm"
   height="105mm"
   viewBox="0 0 105 104.99999"
   version="1.1"
   id="svg1"
   inkscape:version="1.3 (0e150ed6c4, 2023-07-21)"
   sodipodi:docname="Pixelbar_icongrid_black.svg"
   xmlns:inkscape="http://www.inkscape.org/namespaces/inkscape"
   xmlns:sodipodi="http://sodipodi.sourceforge.net/DTD/sodipodi-0.dtd"
   xmlns="http://www.w3.org/2000/svg"
   xmlns:svg="http://www.w3.org/2000/svg">
  <sodipodi:namedview
     id="namedview1"
     pagecolor="#ffffff"
     bordercolor="#999999"
     borderopacity="1"
     inkscape:showpageshadow="0"
     inkscape:pageopacity="0"
     inkscape:pagecheckerboard="0"
     inkscape:deskcolor="#d1d1d1"
     inkscape:document-units="mm"
     inkscape:zoom="2.3428854"
     inkscape:cx="112.04133"
     inkscape:cy="135.94348"
     inkscape:window-width="2560"
     inkscape:window-height="1377"
     inkscape:window-x="-8"
     inkscape:window-y="-8"
     inkscape:window-maximized="1"
     inkscape:current-layer="layer1" />
  <defs
     id="defs1" />
  <g
     inkscape:label="Layer 1"
     inkscape:groupmode="layer"
     id="layer1"
     transform="translate(-103.13844,-7.3142967)">
    <g
       id="g2"
       transform="translate(22.846155,23.479535)">
      <path
         id="path61-75"
         style="color:#000000;fill:#000000;fill-rule:evenodd;stroke-width:0.191358;stroke-dashoffset:20;-inkscape-stroke:none"
         d="m 103.04001,43.786291 c 5.97522,0.05834 11.95582,0.02584 17.93276,0.02584 2.73973,-0.107075 5.11911,2.449066 4.90668,5.163509 v 12.215275 c 0.71484,1.652993 1.42921,3.305877 2.14405,4.95887 0.43447,0.770832 0.43156,2.224498 -0.0687,3.175517 -0.64827,1.541319 -2.32069,2.480616 -3.97133,2.289266 -8.26454,-0.0044 -16.52947,0.0089 -24.79384,-0.0067 -2.639377,-0.05426 -4.328617,-3.496839 -3.190497,-5.537129 0.69212,-1.657696 1.47515,-3.296139 2.110467,-4.965589 0.016,-4.291573 -0.0321,-8.585415 0.0248,-12.8757 0.19018,-2.474188 2.46858,-4.439337 4.90564,-4.443139 z m 17.93328,3.180167 h -17.9586 c -0.99895,0 -1.7508,0.863818 -1.7508,1.751831 0,4.102564 -6e-5,8.560755 0,12.655042 H 122.7246 V 48.718806 c 0,-0.923719 -0.73535,-1.752348 -1.75131,-1.752348 z m 2.13268,15.648141 h -22.22345 c -0.69631,1.360428 -1.39259,3.56736 -2.08876,4.927864 0,0.33756 0.27367,0.917257 0.61082,0.917257 h 25.17882 c 0.33756,0 0.61082,-0.579697 0.61082,-0.917257 -0.69768,-1.359677 -1.3904,-3.568274 -2.08825,-4.927864 z m -8.85785,2.095996 0.5705,2.086177 h -5.64926 l 0.5705,-2.086177 z"
         sodipodi:nodetypes="sccccccccccssssccsscccssccccccc"
         inkscape:label="Laptop" />
      <path
         id="path59-2"
         style="color:#000000;fill:#000000;fill-rule:evenodd;stroke-width:0.191346;stroke-dashoffset:20;-inkscape-stroke:none"
         d="m 152.02862,43.042667 c 0.50525,0.01085 1.0129,0.05892 1.51877,0.145727 2.75645,0.473169 5.17934,2.00492 6.7815,4.289144 1.01824,1.463238 1.63835,3.145468 1.85389,4.909778 0.0581,0.599417 0.24785,1.967099 0.56068,3.33623 0.31175,1.364382 0.81788,2.802867 1.20872,3.361036 0.0695,0.135574 -3.7e-4,-0.05386 0.4375,0.748269 0.14097,0.258273 0.26527,0.464583 0.36535,0.722437 -0.13179,-0.230865 -0.12798,-0.223828 -5.2e-4,0.0041 0.0897,0.232981 0.13129,0.439049 0.17777,0.646472 0.33022,0.272991 0.53349,0.633413 0.70693,1.017509 0.42718,0.411843 0.52582,0.564648 0.75396,1.07797 0.15072,0.144935 0.30543,0.293159 0.44752,0.496094 0.98493,1.40662 0.98163,3.08698 -0.0305,4.37441 -0.30179,1.430044 -1.13048,2.718455 -2.35076,3.572909 -1.27287,0.891282 -2.64825,1.250705 -4.15324,0.987536 -0.0309,0.03086 -2.60747,0.706276 -4.12998,-1.468127 -0.14057,-0.200756 -0.22624,-0.395266 -0.31057,-0.585494 -0.40787,-0.392089 -0.52854,-0.565296 -0.75758,-1.082105 -0.32811,-0.275283 -0.54094,-0.62483 -0.71313,-1.009757 -0.17879,-0.114354 -0.35835,-0.224205 -0.54674,-0.388607 -0.39832,-0.345818 -1.09549,-1.239722 -1.11104,-1.261938 -0.25396,-0.362688 -0.95286,-1.02146 -1.93012,-1.720825 -0.97725,-0.699367 -2.23975,-1.468053 -3.67368,-2.207101 -2.25232,-1.161945 -3.27961,-2.382248 -4.04264,-3.413745 l -0.004,-0.0041 c -0.005,-0.0071 -0.0104,-0.01395 -0.0155,-0.02119 -1.60286,-2.289114 -2.21413,-5.091687 -1.71514,-7.846033 0.48201,-2.660433 2.21089,-4.968573 4.1584,-6.57996 1.94751,-1.611388 4.2586,-2.045051 6.51413,-2.100647 z m -0.46974,3.150195 c -1.44806,0.04009 -2.85638,0.505255 -4.05143,1.342037 -1.61547,1.131167 -2.69704,2.817857 -3.04684,4.750614 -0.34986,1.930717 0.0752,3.875013 1.19528,5.474602 0.71104,1.013262 1.66612,1.798204 2.7652,2.361096 0.0327,0.03769 4.84286,2.068543 6.60942,4.591451 l 0.59996,0.692981 c 0.23837,0.20824 0.46685,0.329259 0.6842,0.364319 l 5.31543,-3.721737 c 0.0414,-0.216232 0.006,-0.472685 -0.108,-0.767912 l -0.44597,-0.800984 c -1.76656,-2.522908 -2.03053,-7.737357 -2.03553,-7.794357 -0.11896,-1.239539 -0.63687,-2.35622 -1.2914,-3.392558 -1.71988,-2.456282 -4.33923,-3.150805 -6.19032,-3.099552 z m 10.72855,16.984493 c -0.0596,-0.0069 -0.12037,-0.0062 -0.18087,0.0026 l -4.89169,3.425631 c -0.1153,0.21505 -0.114,0.479982 0.0315,0.687813 0.0592,0.08452 0.12871,0.165963 0.22221,0.194303 0.22459,0.06816 0.41771,0.343058 0.42271,0.552421 0.003,0.117011 0.0411,0.232991 0.11214,0.334347 0.0755,0.107887 0.18656,0.168707 0.29456,0.228926 0.13539,0.07546 0.34612,0.306552 0.35812,0.59738 0.0191,0.46266 0.62502,0.69455 1.04128,0.403076 0.23544,-0.11135 0.44135,-0.139348 0.58291,-0.09612 0.77639,0.237069 1.65017,0.157198 2.36988,-0.346749 0.71922,-0.503598 1.05555,-1.203168 1.13585,-2.107882 0.0152,-0.171257 0.10256,-0.368015 0.2899,-0.514697 0.40201,-0.314713 0.37441,-0.887033 -0.0227,-1.116727 -0.19131,-0.08012 -0.33283,-0.156184 -0.43925,-0.541053 -0.033,-0.119184 -0.0387,-0.246612 -0.1142,-0.3545 -0.071,-0.101356 -0.16811,-0.174212 -0.27544,-0.220142 -0.19996,-0.138333 -0.33085,-0.163231 -0.37465,-0.58601 -0.0101,-0.09713 -0.0478,-0.190399 -0.10697,-0.274919 -0.10915,-0.15587 -0.27655,-0.246872 -0.45527,-0.267684 z"
         sodipodi:nodetypes="scccscscccccccscscccccsccccczsssccccccccccccsccsccscscsssccccccsssc"
         inkscape:label="Lightbulb" />
      <path
         id="path55-3"
         style="color:#000000;fill:#000000;fill-rule:evenodd;stroke-width:0.184731;stroke-dashoffset:75.5906;-inkscape-stroke:none"
         d="m 153.01808,-0.185703 c -1.2946,0 -2.45587,0.818648 -2.89285,2.037085 l -0.60513,1.687752 c -0.39154,-0.200201 -0.78024,-0.413671 -1.17841,-0.598861 -0.57971,-0.269621 -1.17951,-0.479299 -1.83743,-0.500813 -0.72872,4.05e-4 -1.47316,0.301362 -2.06654,0.873331 l -2.0252,2.023133 c -0.91572,0.915367 -1.16056,2.315696 -0.6072,3.486609 l 0.76533,1.619022 -1.23455,0.40411 c -0.5663,0.184626 -1.17053,0.451607 -1.66967,0.949296 -0.51514,0.513654 -0.83554,1.25079 -0.85163,2.079976 -5e-5,0.0052 -5e-5,0.01033 0,0.0155 v 0.0041 2.847889 c 0,1.29452 0.81797,2.456108 2.03709,2.89233 l 1.68775,0.60358 -0.59014,1.160136 c -0.26921,0.530663 -0.5066,1.144997 -0.50746,1.8495 -8.8e-4,0.727265 0.29392,1.476919 0.86868,2.074292 l 0.01,0.0098 0.002,0.0041 2.01383,2.013314 c 0.94048,0.939059 2.34632,1.142271 3.48454,0.605648 0.53989,-0.256799 1.08065,-0.511751 1.62109,-0.767393 l 0.53485,1.63866 v 0.0016 c 10e-4,0.0041 0.006,0.0056 0.008,0.0098 0.41594,1.252989 1.59276,2.107882 2.91403,2.107882 h 2.84221 c 1.29441,0 2.45739,-0.818785 2.89439,-2.037602 0.20173,-0.56222 0.40248,-1.124794 0.60359,-1.687235 l 1.15807,0.588078 c 0.52419,0.2663 1.13601,0.510868 1.84381,0.515214 0.73262,0.0045 1.485,-0.29483 2.08566,-0.8785 l 2.0216,-2.023631 c 0.91538,-0.915401 1.15785,-2.314542 0.60564,-3.484542 l -0.76377,-1.621089 1.23041,-0.402043 c 0.56704,-0.18409 1.17188,-0.451228 1.67173,-0.949296 0.51573,-0.513882 0.83755,-1.250597 0.8537,-2.079976 5e-5,-0.0053 5e-5,-0.01068 0,-0.01602 v -0.0036 -2.847889 c 0,-1.294868 -0.81796,-2.456105 -2.03709,-2.89233 l -1.68723,-0.60358 0.77928,-1.535307 c 0.59997,-1.182201 0.37075,-2.626238 -0.56689,-3.564123 L 164.42285,3.41201 c -0.93939,-0.939536 -2.34561,-1.14506 -3.48454,-0.607198 l -1.62109,0.767395 -0.40256,-1.234033 c -0.18451,-0.566096 -0.45176,-1.170737 -0.9493,-1.670182 -0.51364,-0.515615 -1.25052,-0.837064 -2.07997,-0.853178 z m 5.2e-4,3.073714 h 2.84323 l 1.12448,3.445268 1.96009,0.811837 3.30419,-1.560629 2.01021,2.010214 -1.64072,3.231844 0.81132,1.95957 3.44061,1.231966 v 2.843237 l -3.44526,1.12448 -0.81236,1.960603 1.56115,3.303158 -2.0097,2.01073 -3.23236,-1.640727 -1.96009,0.811837 -1.23196,3.4401 h -2.84324 l -1.125,-3.444751 -1.9606,-0.812353 -3.30316,1.561145 -2.01073,-2.01073 1.64073,-3.230811 -0.81184,-1.960604 -3.4401,-1.231966 v -2.843237 l 3.44475,-1.124996 0.81287,-1.960604 -1.56114,-3.303158 2.01073,-2.010213 3.23081,1.640727 1.9606,-0.811837 z m 1.36064,8.510592 c -2.19844,0 -3.98064,1.782718 -3.98064,3.981152 0,2.198986 1.7822,3.981152 3.98064,3.981152 2.19898,0 3.98218,-1.782166 3.98218,-3.981152 0,-2.198434 -1.7832,-3.981152 -3.98218,-3.981152 z m 5.1e-4,1.929598 c 1.13279,0 2.05156,0.91876 2.05156,2.051554 0,1.133345 -0.91877,2.051554 -2.05156,2.051554 -1.13334,0 -2.05104,-0.918209 -2.05104,-2.051554 0,-1.132794 0.9177,-2.051554 2.05104,-2.051554 z"
         sodipodi:nodetypes="cccsccccccscccscccccccccccccsscccscccccscccsccccccccscccccccccccccccccccccccccccccccccccssssssssss"
         inkscape:label="Gear" />
      <path
         id="path57-1"
         style="color:#000000;fill:#000000;fill-rule:evenodd;stroke-width:0.190518;stroke-dashoffset:20;-inkscape-stroke:none"
         d="m 107.88088,1.341852 c -0.79879,0.45471 -1.36044,1.238637 -1.53324,2.142505 -0.1735,0.903753 0.0592,1.837353 0.63303,2.554883 6.7e-4,0.0013 10e-4,0.0023 0.002,0.0036 l 0.004,0.0041 c 0.34683,0.411214 0.67391,0.838518 1.00821,1.259871 0.78606,0.982998 1.92909,1.248486 2.83962,1.136365 l 0.0842,0.0078 c 0.0478,-0.0072 0.39262,0.08456 0.55449,0.09767 -0.68357,0.674626 -1.36061,1.367393 -2.04484,2.035534 -0.36359,0.139801 -0.73021,0.285285 -1.01957,0.548804 -4.3e-4,3.92e-4 -0.002,-3.91e-4 -0.002,0 L 96.724967,21.77523 c -1.318514,1.20153 -1.364062,3.292876 -0.103869,4.551144 1.220153,1.213461 2.439322,2.432083 3.658172,3.648356 1.25621,1.25247 3.33838,1.209523 4.53926,-0.103353 3.5504,-3.874888 7.09754,-7.752775 10.64845,-11.627197 0.26325,-0.287861 0.3985,-0.654973 0.53898,-1.015442 0.59592,-0.579063 1.80897,-1.801249 2.56832,-2.559011 0.0504,0.06 0.0581,0.132664 0.11524,0.189652 0.45764,0.457719 0.9166,0.914126 1.37511,1.370976 0.60948,0.607595 1.41762,0.91829 2.22054,0.91829 0.80321,0 1.61162,-0.310576 2.22105,-0.91829 l 2.84375,-2.836002 v -0.0016 c 0.59059,-0.589496 0.92346,-1.38956 0.92346,-2.22467 -0.12805,-0.817216 -0.40005,-1.680844 -0.92346,-2.226738 l -1.33428,-1.331658 c -0.47501,-0.47393 -1.13292,-0.636879 -1.78491,-0.738457 -0.10129,-0.500248 -0.16812,-1.036691 -0.42374,-1.384928 -0.42427,-0.577992 -0.92919,-0.984516 -1.04488,-1.11724 -0.57321,-0.629862 -4.01514,-4.250803 -9.07647,-4.455029 -0.025,-0.01985 -2.69673,-0.340253 -5.80481,1.427819 z m 5.38933,1.677934 c 3.47783,0.05039 5.5934,1.898223 7.87136,4.169771 l 0.33331,1.204061 c 0.25841,0.633584 0.76174,1.094814 1.37924,1.312065 0.43402,-0.109868 0.65178,0.139746 0.94051,0.130224 l 1.33532,1.331185 -2.84478,2.837036 -1.35238,-1.349271 c -0.0866,-0.6621 -0.22954,-1.250243 -0.70435,-1.746664 -0.45528,-0.454194 -1.0937,-0.639781 -1.69033,-0.641304 l -4.64675,4.633826 c -0.17946,0.153709 -0.58592,0.562648 -0.74259,1.220597 L 102.50136,27.746959 98.844218,24.099636 110.52568,13.456875 c 0.3741,-0.123194 0.73263,-0.309623 1.02991,-0.568957 l 4.34289,-4.312399 c 1.33346,-1.667211 -2.22582,-3.284037 -4.73667,-3.284037 -0.2492,0 -0.48904,0.01626 -0.71158,0.04961 l -0.3421,-0.427364 1.82676,-0.83044 -2.21692,0.343131 -0.28163,-0.351399 c 1.10973,-0.623288 2.36558,-1.076505 3.83387,-1.055233 z"
         sodipodi:nodetypes="ccccccccccsccccccccccscccccccscccsccccccccccccccccscccccss"
         inkscape:label="Hammer" />
    </g>
  </g>
</svg>
