<?xml version="1.0" encoding="UTF-8"?>
<svg width="2370px" height="2370px" viewBox="0 0 2370 2370" version="1.1" xmlns="http://www.w3.org/2000/svg" xmlns:xlink="http://www.w3.org/1999/xlink">
    <title>White on transparent/Pixelbar_Symbols_White_Transparent</title>
    <g id="White-on-transparent/Pixelbar_Symbols_White_Transparent" stroke="none" stroke-width="1" fill="none" fill-rule="evenodd">
        <g id="Logo-Symbols" transform="translate(50.000000, 95.000000)" fill="#FFFFFF">
            <g id="Gear" transform="translate(1741.408000, 825.515000)">
                <path d="M286.27,34.582 L308.66,97.079 L344.28,111.834 L402.98,82.023 L439.51,118.547 L411.15,178.555 L425.91,214.175 L481.2,232.225 L488.5,234.615 L488.5,286.265 L426,308.645 L411.25,344.265 L437.59,396.115 L441.06,402.965 L404.53,439.495 L344.52,411.125 L308.9,425.885 L290.84,481.175 L288.46,488.475 L236.8,488.475 L214.42,425.975 L178.81,411.225 L126.94,437.555 L120.09,441.035 L83.58,404.505 L111.94,344.495 L97.18,308.875 L41.89,290.825 L34.59,288.445 L34.59,236.785 L97.1,214.405 L111.84,178.805 L85.51,126.932 L82.03,120.093 L118.55,83.57 L178.58,111.927 L214.19,97.177 L234.62,34.582 L286.27,34.582 Z M286.27,0 L234.62,0 C219.65,0 206.38,9.633 201.74,23.867 L199.36,31.169 L186.25,71.318 L179.5,74.114 L133.32,52.3 C128.6,50.071 123.56,48.987 118.56,48.986 C109.58,48.986 100.73,52.484 94.1,59.118 L57.58,95.642 C47,106.222 44.43,122.405 51.2,135.745 L73.8,180.275 L71.01,187.015 L22.93,204.235 C9.18,209.155 0,222.185 0,236.785 L0,288.445 C0,303.425 9.64,316.695 23.88,321.335 L31.18,323.705 L71.32,336.815 L74.12,343.575 L52.31,389.735 C46.08,402.935 48.8,418.635 59.12,428.955 L95.63,465.485 C102.28,472.135 111.13,475.625 120.1,475.625 C125.42,475.625 130.79,474.395 135.75,471.875 L142.6,468.395 L180.27,449.265 L187.03,452.065 L204.24,500.135 C209.17,513.885 222.2,523.055 236.8,523.055 L288.46,523.055 C303.41,523.055 316.68,513.435 321.33,499.225 L336.83,451.745 L343.59,448.945 L389.75,470.765 C394.48,472.995 399.52,474.075 404.52,474.075 C413.5,474.075 422.35,470.575 428.99,463.945 L465.51,427.415 C476.09,416.835 478.67,400.655 471.9,387.315 L468.43,380.475 L449.29,342.795 L452.09,336.035 L500.16,318.815 C513.91,313.895 523.08,300.865 523.08,286.265 L523.08,234.615 C523.08,219.645 513.45,206.375 499.23,201.735 L491.93,199.355 L451.77,186.245 L448.97,179.475 L470.78,133.323 C477.02,120.118 474.29,104.417 463.96,94.091 L427.44,57.567 C420.79,50.926 411.94,47.439 402.97,47.439 C397.65,47.438 392.29,48.664 387.33,51.186 L380.49,54.66 L342.81,73.794 L336.05,70.992 L318.83,22.92 C313.9,9.173 300.87,0 286.27,0 L286.27,0 Z" id="Fill-26"></path>
                <path d="M261.55,189.195 C221.6,189.195 189.21,221.585 189.21,261.525 C189.21,301.475 221.6,333.855 261.55,333.855 C301.49,333.855 333.87,301.475 333.87,261.525 C333.87,221.585 301.49,189.195 261.55,189.195 M261.54,298.795 C240.96,298.795 224.27,282.115 224.27,261.525 C224.27,240.945 240.96,224.255 261.54,224.255 C282.13,224.255 298.81,240.945 298.81,261.525 C298.81,282.115 282.13,298.795 261.54,298.795" id="Fill-27"></path>
                <path d="M261.54,164.861 C208.15,164.861 164.87,208.135 164.87,261.525 C164.87,314.915 208.15,358.195 261.54,358.195 C314.93,358.195 358.21,314.915 358.21,261.525 C358.21,208.135 314.93,164.861 261.54,164.861 M261.54,345.295 C215.28,345.295 177.77,307.795 177.77,261.525 C177.77,215.265 215.28,177.755 261.54,177.755 C307.81,177.755 345.32,215.265 345.32,261.525 C345.32,307.795 307.81,345.295 261.54,345.295" id="Fill-28"></path>
            </g>
            <g id="Hammer" transform="translate(955.569458, 0.000000)">
                <path d="M522.048542,153.624 L498.528542,130.167 C492.028542,123.68 483.228542,120.07 474.108542,120.07 C473.338542,120.07 472.558542,120.096 471.788542,120.147 C471.618542,120.159 471.458542,120.164 471.298542,120.164 C470.028542,120.164 468.178542,119.833 466.598542,118.257 C464.898542,116.561 464.648542,114.587 464.738542,113.231 C465.418542,103.253 461.738542,93.4720004 454.658542,86.4100004 L440.618542,72.4120004 C432.038542,62.9820004 371.588542,0.00600038565 288.718542,2.84217094e-14 C259.528542,2.84217094e-14 231.048542,7.77500039 204.078542,23.1170004 C195.288542,28.1210004 189.118542,36.7280004 187.218542,46.6680004 C185.308542,56.6080004 187.858542,66.8840004 194.178542,74.7860004 L199.138542,80.9780004 C200.298542,82.4310004 201.568542,83.7730004 202.918542,84.9990004 C203.818542,86.5880004 204.848542,88.1140004 206.008542,89.5620004 L212.038542,97.0900004 C218.648542,105.358 228.618542,110.063 239.028542,110.063 C240.738542,110.063 242.448542,109.937 244.168542,109.68 C246.318542,109.356 248.808542,109.192 251.568542,109.192 C268.818542,109.192 286.978542,114.918 298.008542,120.516 L237.088542,181.269 C236.268542,181.916 235.468542,182.607 234.698542,183.338 C233.868542,184.129 232.928542,184.649 231.838542,184.928 C226.338542,186.327 221.268542,189.057 217.078542,192.877 L11.2885416,380.358 C4.29854161,386.728 0.218541606,395.685 0.00854160566,405.141 C-0.201458394,414.598 3.46854161,423.729 10.1585416,430.409 L74.5885416,494.661 C81.0785416,501.132 89.8685416,504.755 99.0085416,504.755 C99.2685416,504.755 99.5285416,504.755 99.7885416,504.748 C109.218542,504.534 118.148542,500.482 124.508542,493.529 L312.078542,288.73 C316.048542,284.389 318.848542,279.106 320.218542,273.379 C320.478542,272.263 320.968542,271.33 321.688542,270.536 L321.998542,270.271 L322.258542,270.046 C322.878542,269.507 323.488542,268.946 324.068542,268.366 L388.718542,203.89 C388.708542,213.076 392.358542,221.907 398.878542,228.414 L423.098542,252.568 C429.848542,259.297 438.688542,262.664 447.518542,262.664 C456.358542,262.664 465.188542,259.298 471.938542,252.567 L522.048542,202.596 C528.548542,196.108 532.208542,187.297 532.208542,178.109 C532.208542,168.921 528.548542,160.111 522.048542,153.624 L522.048542,153.624 Z M99.0085416,470.173 L34.5885416,405.921 L240.368542,218.441 C240.818542,218.328 241.238542,218.146 241.678542,218.019 L288.428542,259.559 C287.668542,261.46 287.038542,263.4 286.568542,265.373 L99.0085416,470.173 Z M381.508542,162.243 L381.508542,162.241 L299.648542,243.879 C298.908542,244.513 298.178542,245.139 297.478542,245.833 C296.498542,246.813 295.598542,247.841 294.738542,248.892 L253.618542,212.348 C255.308542,211.168 256.958542,209.889 258.508542,208.422 L258.668542,208.586 L335.008542,132.451 C358.498542,103.082 295.798542,74.6090004 251.568542,74.6090004 C247.178542,74.6090004 242.958542,74.8910004 239.038542,75.4790004 L233.008542,67.9510004 L265.188542,53.3180004 L226.138542,59.3690004 L221.178542,53.1760004 C244.738542,39.7740004 267.528542,34.5820004 288.708542,34.5820004 C361.688542,34.5880004 415.538542,96.2370004 415.538542,96.2370004 L427.368542,108.034 L406.238542,144.242 L433.238542,129.247 C435.238542,134.151 438.178542,138.762 442.178542,142.744 C446.658542,147.218 451.938542,150.388 457.538542,152.358 L421.118542,189.434 C419.168542,183.632 415.928542,178.17 411.288542,173.547 C403.268542,165.546 392.018542,162.27 381.508542,162.243 L381.508542,162.243 Z M447.518542,228.082 L423.688542,204.314 L472.418542,154.709 C472.978542,154.693 473.538542,154.69 474.108542,154.652 L497.628542,178.109 L447.518542,228.082 L447.518542,228.082 Z" id="Fill-30"></path>
            </g>
            <g id="Laptop" transform="translate(35.485000, 880.351000)">
                <path d="M104.645,263.049 L427.553,263.049 L427.553,61.996 L104.645,61.996 L104.645,263.049 Z M121.09,247.039 L411.113,247.039 L411.113,77.999 L121.09,77.999 L121.09,247.039 Z" id="Fill-32"></path>
                <path d="M443.573,34.583 C449.493,34.583 454.283,39.386 454.283,45.315 L454.283,279.039 C454.283,279.389 454.213,279.729 454.183,280.079 C454.213,280.429 454.283,280.759 454.283,281.119 L454.373,281.289 L77.813,281.289 L77.903,281.119 C77.903,280.759 77.972,280.429 78.007,280.079 C77.972,279.729 77.903,279.389 77.903,279.039 L77.903,45.315 C77.903,39.386 82.697,34.583 88.611,34.583 L443.573,34.583 Z M460.973,294.179 L489.893,350.679 L42.297,350.679 L71.215,294.179 L460.973,294.179 Z M217.3,337.119 L314.886,337.119 L304.055,314.229 L229.315,314.229 L217.3,337.119 Z M496.483,363.579 L497.603,365.759 C497.603,371.679 492.813,381.849 486.893,381.849 L45.291,381.849 C39.378,381.849 34.583,371.679 34.583,365.759 L35.699,363.579 L496.483,363.579 Z M443.573,0 L88.611,0 C63.637,0 43.32,20.328 43.32,45.315 L43.32,273.739 C42.244,275.209 41.277,276.769 40.431,278.429 L11.512,334.929 C10.39,337.119 9.519,339.399 8.895,341.719 C7.376,343.589 6.039,345.619 4.917,347.809 L3.801,349.989 C1.303,354.869 0,360.269 0,365.759 C0,390.229 18.199,416.429 45.291,416.429 L486.893,416.429 C513.983,416.429 532.183,390.229 532.183,365.759 C532.183,360.269 530.883,354.869 528.383,349.989 L527.273,347.809 C526.143,345.619 524.813,343.589 523.293,341.719 C522.663,339.399 521.793,337.119 520.673,334.929 L491.753,278.429 C490.913,276.769 489.943,275.209 488.863,273.739 L488.863,45.315 C488.863,20.328 468.543,0 443.573,0 L443.573,0 Z" id="Fill-33"></path>
            </g>
            <g id="Lightbulb" transform="translate(967.648000, 1647.980000)">
                <path d="M279.97,47.62 C260.55,28.38 236.46,14.19 210.29,6.56 C195.29,2.2 179.75,0 164.06,0 C120.3,0 79.14,16.91 48.15,47.61 C17.11,78.36 0,119.29 0,162.86 C0,163.39 0.02,163.93 0.04,164.47 L0.59,176.26 C0.62,176.79 0.65,177.3 0.7,177.82 C2.73,199.96 9.2,221.1 19.92,240.65 C20.39,241.6 20.88,242.53 21.38,243.47 C48.53,295.11 64.74,340.89 64.74,365.94 C64.74,367.13 64.8,368.32 64.93,369.5 L66.58,385.49 C66.75,387.09 67.02,388.67 67.41,390.23 C68.67,395.34 70.35,399.91 72.35,403.99 C71.23,407.95 70.63,412.12 70.63,416.43 C70.63,420.42 71.14,424.3 72.11,428.01 C71.14,431.71 70.63,435.59 70.63,439.58 C70.63,443.58 71.14,447.45 72.11,451.15 C71.14,454.84 70.63,458.72 70.63,462.71 C70.63,484.2 85.51,502.31 105.59,507.43 C120.8,523.1 141.98,532.21 164.06,532.21 C186.15,532.21 207.33,523.1 222.53,507.43 C242.6,502.3 257.48,484.2 257.48,462.71 C257.48,458.72 256.96,454.84 256,451.15 C256.96,447.45 257.48,443.58 257.48,439.58 C257.48,435.59 256.96,431.71 256,428.01 C256.96,424.3 257.48,420.42 257.48,416.43 C257.48,412.12 256.88,407.95 255.76,403.99 C257.76,399.91 259.44,395.33 260.71,390.21 C261.09,388.66 261.36,387.08 261.53,385.49 L263.18,369.5 C263.3,368.32 263.37,367.13 263.37,365.94 C263.37,329.03 296.43,262.19 308.02,241.68 C308.19,241.38 308.35,241.08 308.51,240.78 C319.04,220.89 325.39,199.71 327.41,177.83 C327.46,177.31 327.49,176.8 327.52,176.28 L328.07,164.48 C328.1,163.94 328.11,163.4 328.11,162.86 C328.11,119.31 311.01,78.38 279.97,47.62 M105.21,416.43 C105.21,411.98 107.86,408.16 111.68,406.23 L216.42,406.23 C220.25,408.16 222.89,411.98 222.89,416.43 C222.89,418.24 222.43,419.93 221.66,421.46 L106.45,421.46 C105.68,419.93 105.21,418.24 105.21,416.43 M105.21,439.58 C105.21,437.41 105.87,435.39 106.96,433.65 L221.15,433.65 C222.23,435.39 222.89,437.41 222.89,439.58 C222.89,441.89 222.18,444.03 220.97,445.83 L107.14,445.83 C105.93,444.03 105.21,441.89 105.21,439.58 M164.06,497.63 C148.65,497.63 135.01,490.2 126.52,478.77 L201.59,478.77 C193.11,490.2 179.46,497.63 164.06,497.63 M210.93,474.29 L117.18,474.29 C110.58,474.29 105.21,469.11 105.21,462.71 C105.21,461.04 105.6,459.46 106.27,458.02 L221.84,458.02 C222.51,459.46 222.89,461.04 222.89,462.71 C222.89,469.11 217.52,474.29 210.93,474.29 M292.97,174.66 C291.35,192.3 286.15,209.1 277.95,224.6 C277.45,225.47 228.78,311.92 228.78,365.94 L227.13,381.93 C225.8,387.32 223.73,391.36 220.96,394.05 L107.15,394.05 C104.38,391.36 102.31,387.32 100.98,381.93 L99.33,365.94 C99.33,311.92 50.66,225.47 50.57,224.6 C41.96,209.1 36.76,192.3 35.14,174.66 L34.59,162.86 C34.59,128.61 48.04,96.4 72.49,72.18 C96.96,47.93 129.47,34.58 164.06,34.58 C176.51,34.58 188.79,36.33 200.61,39.76 C221.29,45.79 240.3,57 255.63,72.18 C280.06,96.4 293.53,128.6 293.53,162.86 L292.97,174.66" id="Fill-34"></path>
            </g>
            <path d="M2261.048,145.094 L1166.758,1087.04 L2261.048,2028.99 C2266.168,2033.18 2269.498,2039.47 2269.498,2046.6 C2269.498,2059.21 2259.278,2069.44 2246.658,2069.44 C2239.528,2069.44 2233.238,2066.11 2229.048,2060.99 L1134.748,1119.04 L40.455,2060.99 C36.264,2066.11 29.976,2069.44 22.847,2069.44 C10.228,2069.44 0,2059.21 0,2046.6 C0,2039.47 3.334,2033.18 8.45,2028.99 L1102.748,1087.04 L8.45,145.094 C3.334,140.904 0,134.618 0,127.488 C0,114.87 10.228,104.642 22.847,104.642 C29.976,104.642 36.264,107.975 40.455,113.092 L1134.748,1055.04 L2229.048,113.092 C2233.238,107.975 2239.528,104.642 2246.658,104.642 C2259.278,104.642 2269.498,114.87 2269.498,127.488 C2269.498,134.618 2266.168,140.904 2261.048,145.094" id="X"></path>
        </g>
    </g>
</svg>